<?xml version="1.0" encoding="UTF-8" standalone="no"?>
<!-- Created with Inkscape (http://www.inkscape.org/) -->

<svg
   xmlns:dc="http://purl.org/dc/elements/1.1/"
   xmlns:cc="http://creativecommons.org/ns#"
   xmlns:rdf="http://www.w3.org/1999/02/22-rdf-syntax-ns#"
   xmlns:svg="http://www.w3.org/2000/svg"
   xmlns="http://www.w3.org/2000/svg"
   xmlns:sodipodi="http://sodipodi.sourceforge.net/DTD/sodipodi-0.dtd"
   xmlns:inkscape="http://www.inkscape.org/namespaces/inkscape"
   width="136.02658mm"
   height="42.257236mm"
   viewBox="0 0 136.02658 42.257237"
   version="1.1"
   id="svg8"
   inkscape:version="0.92.3 (2405546, 2018-03-11)"
   sodipodi:docname="szkopul-logo-6.svg">
  <defs
     id="defs2">
    <inkscape:perspective
       id="perspective22"
       inkscape:persp3d-origin="167.3565 : 93.06967 : 1"
       inkscape:vp_z="334.713 : 139.60451 : 1"
       inkscape:vp_y="0 : 999.99998 : 0"
       inkscape:vp_x="0 : 139.60451 : 1"
       sodipodi:type="inkscape:persp3d" />
  </defs>
  <sodipodi:namedview
     id="base"
     pagecolor="#ffffff"
     bordercolor="#666666"
     borderopacity="1.0"
     inkscape:pageopacity="0.0"
     inkscape:pageshadow="2"
     inkscape:zoom="1.8476744"
     inkscape:cx="168.98607"
     inkscape:cy="54.584956"
     inkscape:document-units="mm"
     inkscape:current-layer="layer1"
     showgrid="false"
     inkscape:window-width="1533"
     inkscape:window-height="845"
     inkscape:window-x="67"
     inkscape:window-y="27"
     inkscape:window-maximized="1"
     showguides="true" />
  <metadata
     id="metadata5">
    <rdf:RDF>
      <cc:Work
         rdf:about="">
        <dc:format>image/svg+xml</dc:format>
        <dc:type
           rdf:resource="http://purl.org/dc/dcmitype/StillImage" />
        <dc:title></dc:title>
      </cc:Work>
    </rdf:RDF>
  </metadata>
  <g
     inkscape:label="Layer 1"
     inkscape:groupmode="layer"
     id="layer1"
     style="display:inline"
     transform="translate(-58.617308,-132.35765)">
    <g
       transform="translate(-6.4029824,10.962449)"
       id="layer1-3"
       inkscape:label="Layer 1">
      <g
         transform="matrix(0.26458333,0,0,0.26458333,-6.8243492,113.02145)"
         id="g3983">
        <g
           id="layer2"
           inkscape:label="Hints"
           style="display:none"
           transform="translate(46.984719,-153.41271)">
          <path
             style="fill:none;stroke:#979797;stroke-width:0.40000001;stroke-linecap:butt;stroke-linejoin:miter;stroke-miterlimit:4;stroke-dasharray:none;stroke-opacity:1"
             d="M 50,347.36218 233.38346,29.732724"
             id="path3014"
             inkscape:connector-curvature="0" />
          <path
             inkscape:connector-curvature="0"
             id="path3808"
             d="M 70,347.36218 253.38346,29.732727"
             style="fill:none;stroke:#979797;stroke-width:0.40000001;stroke-linecap:butt;stroke-linejoin:miter;stroke-miterlimit:4;stroke-dasharray:none;stroke-opacity:1" />
          <path
             inkscape:connector-curvature="0"
             id="path3810"
             d="M 90,347.36218 273.38346,29.732727"
             style="fill:none;stroke:#979797;stroke-width:0.40000001;stroke-linecap:butt;stroke-linejoin:miter;stroke-miterlimit:4;stroke-dasharray:none;stroke-opacity:1" />
          <path
             style="fill:none;stroke:#979797;stroke-width:0.40000001;stroke-linecap:butt;stroke-linejoin:miter;stroke-miterlimit:4;stroke-dasharray:none;stroke-opacity:1"
             d="M 110,347.36218 293.38346,29.73273"
             id="path3812"
             inkscape:connector-curvature="0" />
          <path
             inkscape:connector-curvature="0"
             id="path3814"
             d="M 130,347.36218 313.38346,29.732727"
             style="fill:none;stroke:#979797;stroke-width:0.40000001;stroke-linecap:butt;stroke-linejoin:miter;stroke-miterlimit:4;stroke-dasharray:none;stroke-opacity:1" />
          <path
             style="fill:none;stroke:#979797;stroke-width:0.40000001;stroke-linecap:butt;stroke-linejoin:miter;stroke-miterlimit:4;stroke-dasharray:none;stroke-opacity:1"
             d="M 150,347.36218 333.38346,29.73273"
             id="path3816"
             inkscape:connector-curvature="0" />
          <path
             style="fill:none;stroke:#979797;stroke-width:0.40000001;stroke-linecap:butt;stroke-linejoin:miter;stroke-miterlimit:4;stroke-dasharray:none;stroke-opacity:1"
             d="M 170,347.36218 353.38346,29.73273"
             id="path3818"
             inkscape:connector-curvature="0" />
          <path
             inkscape:connector-curvature="0"
             id="path3820"
             d="M 190,347.36218 373.38346,29.732733"
             style="fill:none;stroke:#979797;stroke-width:0.40000001;stroke-linecap:butt;stroke-linejoin:miter;stroke-miterlimit:4;stroke-dasharray:none;stroke-opacity:1" />
          <path
             style="fill:none;stroke:#979797;stroke-width:0.40000001;stroke-linecap:butt;stroke-linejoin:miter;stroke-miterlimit:4;stroke-dasharray:none;stroke-opacity:1"
             d="M 190,347.36218 42.775681,92.362183"
             id="path3822"
             inkscape:connector-curvature="0" />
          <path
             inkscape:connector-curvature="0"
             id="path3846"
             d="M 210,347.36218 62.775681,92.362186"
             style="fill:none;stroke:#979797;stroke-width:0.40000001;stroke-linecap:butt;stroke-linejoin:miter;stroke-miterlimit:4;stroke-dasharray:none;stroke-opacity:1" />
          <path
             inkscape:connector-curvature="0"
             id="path3848"
             d="M 230,347.36218 82.775681,92.362189"
             style="fill:none;stroke:#979797;stroke-width:0.40000001;stroke-linecap:butt;stroke-linejoin:miter;stroke-miterlimit:4;stroke-dasharray:none;stroke-opacity:1" />
          <path
             style="fill:none;stroke:#979797;stroke-width:0.40000001;stroke-linecap:butt;stroke-linejoin:miter;stroke-miterlimit:4;stroke-dasharray:none;stroke-opacity:1"
             d="M 250,347.36218 102.77568,92.362192"
             id="path3850"
             inkscape:connector-curvature="0" />
          <path
             inkscape:connector-curvature="0"
             id="path3852"
             d="M 270,347.36218 122.77568,92.362186"
             style="fill:none;stroke:#979797;stroke-width:0.40000001;stroke-linecap:butt;stroke-linejoin:miter;stroke-miterlimit:4;stroke-dasharray:none;stroke-opacity:1" />
          <path
             style="fill:none;stroke:#979797;stroke-width:0.40000001;stroke-linecap:butt;stroke-linejoin:miter;stroke-miterlimit:4;stroke-dasharray:none;stroke-opacity:1"
             d="M 290,347.36218 142.77568,92.362189"
             id="path3854"
             inkscape:connector-curvature="0" />
          <path
             style="fill:none;stroke:#979797;stroke-width:0.40000001;stroke-linecap:butt;stroke-linejoin:miter;stroke-miterlimit:4;stroke-dasharray:none;stroke-opacity:1"
             d="M 310,347.36218 162.77568,92.362192"
             id="path3856"
             inkscape:connector-curvature="0" />
          <path
             inkscape:connector-curvature="0"
             id="path3858"
             d="M 330,347.36218 182.77568,92.362195"
             style="fill:none;stroke:#979797;stroke-width:0.40000001;stroke-linecap:butt;stroke-linejoin:miter;stroke-miterlimit:4;stroke-dasharray:none;stroke-opacity:1" />
          <path
             style="fill:none;stroke:#979797;stroke-width:0.40000001;stroke-linecap:butt;stroke-linejoin:miter;stroke-miterlimit:4;stroke-dasharray:none;stroke-opacity:1"
             d="M 120,226.11863 H 260"
             id="path3860"
             inkscape:connector-curvature="0" />
          <path
             inkscape:connector-curvature="0"
             id="path3862"
             d="M 110,208.79812 H 250"
             style="fill:none;stroke:#979797;stroke-width:0.40000001;stroke-linecap:butt;stroke-linejoin:miter;stroke-miterlimit:4;stroke-dasharray:none;stroke-opacity:1" />
          <path
             inkscape:connector-curvature="0"
             id="path3864"
             d="M 140,191.47761 H 280"
             style="fill:none;stroke:#979797;stroke-width:0.40000001;stroke-linecap:butt;stroke-linejoin:miter;stroke-miterlimit:4;stroke-dasharray:none;stroke-opacity:1" />
          <path
             style="fill:none;stroke:#979797;stroke-width:0.40000001;stroke-linecap:butt;stroke-linejoin:miter;stroke-miterlimit:4;stroke-dasharray:none;stroke-opacity:1"
             d="M 130,174.1571 H 270"
             id="path3866"
             inkscape:connector-curvature="0" />
          <path
             style="fill:none;stroke:#979797;stroke-width:0.40000001;stroke-linecap:butt;stroke-linejoin:miter;stroke-miterlimit:4;stroke-dasharray:none;stroke-opacity:1"
             d="M 160,156.8366 H 300"
             id="path3868"
             inkscape:connector-curvature="0" />
          <path
             inkscape:connector-curvature="0"
             id="path3870"
             d="M 150,139.51609 H 290"
             style="fill:none;stroke:#979797;stroke-width:0.40000001;stroke-linecap:butt;stroke-linejoin:miter;stroke-miterlimit:4;stroke-dasharray:none;stroke-opacity:1" />
          <path
             inkscape:connector-curvature="0"
             id="path3873"
             d="M 350,347.36218 202.77568,92.362199"
             style="fill:none;stroke:#979797;stroke-width:0.40000001;stroke-linecap:butt;stroke-linejoin:miter;stroke-miterlimit:4;stroke-dasharray:none;stroke-opacity:1" />
          <path
             style="fill:none;stroke:#979797;stroke-width:0.40000001;stroke-linecap:butt;stroke-linejoin:miter;stroke-miterlimit:4;stroke-dasharray:none;stroke-opacity:1"
             d="M 370,347.36218 222.77568,92.362202"
             id="path3875"
             inkscape:connector-curvature="0" />
          <path
             inkscape:connector-curvature="0"
             id="path3877"
             d="M 180,122.19559 H 320"
             style="fill:none;stroke:#979797;stroke-width:0.40000001;stroke-linecap:butt;stroke-linejoin:miter;stroke-miterlimit:4;stroke-dasharray:none;stroke-opacity:1" />
          <path
             style="fill:none;stroke:#979797;stroke-width:0.40000001;stroke-linecap:butt;stroke-linejoin:miter;stroke-miterlimit:4;stroke-dasharray:none;stroke-opacity:1"
             d="M 170,104.87508 H 310"
             id="path3879"
             inkscape:connector-curvature="0" />
          <path
             inkscape:connector-curvature="0"
             id="path3973"
             d="M 390,347.36218 242.77568,92.362206"
             style="fill:none;stroke:#979797;stroke-width:0.40000001;stroke-linecap:butt;stroke-linejoin:miter;stroke-miterlimit:4;stroke-dasharray:none;stroke-opacity:1" />
          <path
             style="fill:none;stroke:#979797;stroke-width:0.40000001;stroke-linecap:butt;stroke-linejoin:miter;stroke-miterlimit:4;stroke-dasharray:none;stroke-opacity:1"
             d="M 410,347.36218 262.77568,92.362206"
             id="path3975"
             inkscape:connector-curvature="0" />
          <path
             style="fill:none;stroke:#979797;stroke-width:0.40000001;stroke-linecap:butt;stroke-linejoin:miter;stroke-miterlimit:4;stroke-dasharray:none;stroke-opacity:1"
             d="M 430,347.36218 282.77568,92.362206"
             id="path3977"
             inkscape:connector-curvature="0" />
          <path
             style="fill:none;stroke:#979797;stroke-width:0.40000001;stroke-linecap:butt;stroke-linejoin:miter;stroke-miterlimit:4;stroke-dasharray:none;stroke-opacity:1"
             d="M 450,347.36218 302.77568,92.362216"
             id="path3979"
             inkscape:connector-curvature="0" />
        </g>
        <g
           inkscape:label="Layer 1"
           id="layer1-6"
           style="display:inline"
           transform="translate(46.984719,-153.41271)">
          <text
             xml:space="preserve"
             style="font-style:normal;font-variant:normal;font-weight:normal;font-stretch:normal;line-height:0%;font-family:VenetiaMonitor;-inkscape-font-specification:VenetiaMonitor;letter-spacing:0px;word-spacing:0px;fill:#000000;fill-opacity:1;stroke:none"
             x="417.87085"
             y="393.90506"
             id="text3923"><tspan
               sodipodi:role="line"
               id="tspan3925"
               x="417.87085"
               y="393.90506"
               style="font-size:37.83522034px;line-height:1.25"> </tspan></text>
          <text
             xml:space="preserve"
             style="font-style:normal;font-variant:normal;font-weight:normal;font-stretch:normal;line-height:0%;font-family:VenetiaMonitor;-inkscape-font-specification:VenetiaMonitor;letter-spacing:0px;word-spacing:0px;fill:#000000;fill-opacity:1;stroke:none"
             x="472.30643"
             y="568.54578"
             id="text4009"><tspan
               sodipodi:role="line"
               id="tspan4011"
               x="472.30643"
               y="568.54578"
               style="font-size:37.83522034px;line-height:1.25"> </tspan></text>
          <text
             xml:space="preserve"
             style="font-style:normal;font-variant:normal;font-weight:normal;font-stretch:normal;line-height:0%;font-family:VenetiaMonitor;-inkscape-font-specification:VenetiaMonitor;letter-spacing:0px;word-spacing:0px;fill:#000000;fill-opacity:1;stroke:none"
             x="140.65709"
             y="578.00464"
             id="text4186"><tspan
               sodipodi:role="line"
               id="tspan4188"
               x="140.65709"
               y="578.00464"
               style="font-size:14.18820763px;line-height:1.25"> </tspan></text>
          <flowRoot
             xml:space="preserve"
             id="flowRoot3128"
             style="font-style:normal;font-variant:normal;font-weight:normal;font-stretch:normal;line-height:0.01%;font-family:VenetiaMonitor;-inkscape-font-specification:VenetiaMonitor;letter-spacing:0px;word-spacing:0px;fill:#000000;fill-opacity:1;stroke:none"
             transform="matrix(1.1823506,0,0,1.1823506,-56.795472,-46.704745)"><flowRegion
               id="flowRegion3130"><rect
                 id="rect3132"
                 width="586"
                 height="280"
                 x="47"
                 y="37.362183" /></flowRegion><flowPara
               id="flowPara3134"
               style="font-size:32px;line-height:1.25"> </flowPara></flowRoot>          <g
             id="g3405"
             transform="matrix(0.8632061,0,0,0.8632061,31.071403,28.005947)">
            <path
               inkscape:connector-curvature="0"
               id="path3987"
               d="m 284.10549,192.84606 6.29401,23.4896 23.4896,6.29401 -34.39115,34.39116 23.48959,6.29401 6.29401,23.4896 17.19559,-17.19559 -6.29403,-23.48958 46.97919,12.58803 -6.29402,-23.48958 17.19558,-17.19559 -23.48959,-6.29402 -17.19558,17.19558 -12.58803,-46.97919 -17.19558,17.19558 z"
               style="fill:#f93800;fill-opacity:1;stroke:none;stroke-width:0.86132371" />
            <path
               style="fill:#0097ff;fill-opacity:1;stroke:none;stroke-width:0.86132371"
               d="m 272.78067,261.66587 12.15912,21.06019 -12.15912,21.06019 48.63644,1e-5 -12.15911,21.06018 12.15912,21.06019 h -24.31824 l -12.15909,-21.06019 -24.31822,42.12038 -12.15911,-21.06019 h -24.31822 l 12.15911,-21.06019 h 24.31822 l -24.31822,-42.12038 h 24.31822 z"
               id="path3989"
               inkscape:connector-curvature="0" />
            <path
               inkscape:connector-curvature="0"
               id="path3991"
               d="m 369.97146,261.66587 -12.15912,21.06019 12.15912,21.06019 -48.63645,1e-5 12.15912,21.06018 -12.15913,21.06019 h 24.31826 l 12.15908,-21.06019 24.31822,42.12038 12.15911,-21.06019 h 24.31822 l -12.15911,-21.06019 h -24.31822 l 24.31822,-42.12038 h -24.31822 z"
               style="fill:#39b516;fill-opacity:1;stroke:none;stroke-width:0.86132371" />
          </g>
          <text
             xml:space="preserve"
             style="font-style:normal;font-variant:normal;font-weight:normal;font-stretch:normal;line-height:0%;font-family:VenetiaMonitor;-inkscape-font-specification:VenetiaMonitor;letter-spacing:0px;word-spacing:0px;fill:#000000;fill-opacity:1;stroke:none"
             x="436.24472"
             y="259.95227"
             id="text4364"><tspan
               sodipodi:role="line"
               id="tspan4366"
               x="436.24472"
               y="259.95227"
               style="font-size:37.83522034px;line-height:1.25"> </tspan></text>
          <flowRoot
             xml:space="preserve"
             id="flowRoot4402"
             style="font-style:normal;font-variant:normal;font-weight:normal;font-stretch:normal;line-height:0.01%;font-family:VenetiaMonitor;-inkscape-font-specification:VenetiaMonitor;letter-spacing:0px;word-spacing:0px;fill:#000000;fill-opacity:1;stroke:none"
             transform="matrix(1.1823506,0,0,1.1823506,-56.795472,-46.704745)"><flowRegion
               id="flowRegion4404"><rect
                 id="rect4406"
                 width="230"
                 height="181"
                 x="233"
                 y="149.36218" /></flowRegion><flowPara
               id="flowPara4408"
               style="font-size:32px;line-height:1.25"> </flowPara></flowRoot>          <text
             xml:space="preserve"
             style="font-style:normal;font-variant:normal;font-weight:normal;font-stretch:normal;line-height:0%;font-family:VenetiaMonitor;-inkscape-font-specification:VenetiaMonitor;letter-spacing:0px;word-spacing:0px;fill:#000000;fill-opacity:1;stroke:none"
             x="130.57272"
             y="151.28186"
             id="text5142"><tspan
               sodipodi:role="line"
               id="tspan5144"
               x="130.57272"
               y="151.28186"
               style="font-size:37.83522034px;line-height:1.25"> </tspan></text>
          <g
             id="g5187"
             transform="matrix(1.8231719,0,0,1.8231719,-475.80964,-430.38297)">
            <g
               style="font-style:normal;font-variant:normal;font-weight:normal;font-stretch:normal;font-size:29.60864067px;line-height:125%;font-family:'Gill Sans';-inkscape-font-specification:'Gill Sans';text-align:end;letter-spacing:0px;word-spacing:0px;text-anchor:end;fill:#000000;fill-opacity:1;stroke:none"
               id="text3124">
              <path
                 inkscape:connector-curvature="0"
                 d="m 510.63402,375.21173 q -0.127,0.254 0,0.381 0.127,0.12701 0,0.25401 -0.1905,0.127 -0.69851,0.1905 -0.44451,0 -0.76201,0.0635 -0.44451,0.127 -0.88902,0.127 -0.4445,-0.0635 -0.95251,-0.381 -0.76201,-0.38101 -1.90503,-0.69851 -1.07952,-0.38101 -2.34954,-0.38101 -1.65102,0 -3.49255,0.38101 -1.84153,0.3175 -3.55606,0.95251 -1.65103,0.57151 -2.98455,1.46053 -1.27002,0.88901 -1.84152,1.96853 -0.38101,0.82551 -0.31751,1.77802 0.0635,0.88902 0.44451,1.71453 0.381,0.82551 0.88901,1.52403 0.57151,0.635 1.07952,0.88901 1.58752,0.82551 3.49255,1.07952 1.96853,0.254 4.00057,0.3175 2.09553,0.0635 4.12756,0.1905 2.03203,0.12701 3.74656,0.63501 0.88901,0.31751 1.65102,0.50801 0.82552,0.1905 1.46053,0.57151 0.63501,0.31751 1.14301,0.95252 0.57151,0.5715 0.95252,1.71452 0.57151,2.41304 -0.254,4.69908 -0.82552,2.34953 -2.73055,4.19106 -1.90503,1.77803 -4.31806,2.85755 -1.90503,0.82551 -3.93707,1.14301 -1.96853,0.25401 -3.87356,-0.127 -1.84153,-0.381 -3.42905,-1.46052 -1.52402,-1.07952 -2.47654,-2.98455 -0.57151,-1.20652 -0.57151,-2.92104 -0.0635,-0.19051 0,-0.38101 0.127,-0.44451 0.82551,-0.44451 0.25401,-0.127 0.63501,0.19051 0.44451,0.254 0.63501,0.3175 0.50801,0.0635 0.95252,0.69851 0.50801,0.57151 0.95251,0.95252 1.58753,1.65102 3.55606,2.03203 2.03203,0.3175 3.87356,0 1.90503,-0.38101 3.49256,-1.14302 1.58752,-0.76201 2.34953,-1.39702 0.44451,-0.38101 0.95252,-0.88901 0.57151,-0.57151 1.07951,-1.20652 0.50801,-0.69851 0.82552,-1.46053 0.381,-0.76201 0.381,-1.58752 -0.1905,-0.76201 -1.01601,-1.14302 -0.82552,-0.44451 -2.09554,-0.69851 -2.22253,-0.38101 -4.38156,-0.38101 -2.15904,-0.0635 -4.25457,0 -2.09553,0.0635 -4.12757,0.0635 -2.03203,0 -3.93706,-0.44451 -0.57151,-0.127 -1.14301,-0.38101 -0.50801,-0.3175 -1.01602,-0.63501 -0.50801,-0.3175 -0.76201,-0.82551 -0.25401,-0.50801 -0.57151,-1.07952 -0.31751,-0.57151 -0.63501,-1.14302 -0.25401,-0.63501 -0.38101,-1.33352 -0.3175,-2.03203 0,-4.19106 0.38101,-2.15904 1.65103,-4.00056 1.01601,-1.52403 2.73054,-2.60354 1.77803,-1.14302 3.93706,-1.71453 2.22254,-0.63501 4.69908,-0.57151 2.47653,0 5.08008,0.76201 0.3175,0.127 0.76201,0.38101 0.4445,0.1905 0.76201,0.3175 0.88901,0.44451 1.58752,1.07952 0.69852,0.63501 0.95252,1.27002 z"
                 style="font-style:normal;font-variant:normal;font-weight:normal;font-stretch:normal;font-size:48px;font-family:'Nanum Brush Script';-inkscape-font-specification:'Nanum Brush Script';text-align:end;text-anchor:end;stroke-width:1.32293737"
                 id="path3438" />
              <path
                 inkscape:connector-curvature="0"
                 d="m 542.11166,384.48287 q 0.88901,0 1.58752,0 0.76202,-0.0635 1.58753,0.0635 0.82551,0.127 1.65103,-0.0635 0.82551,-0.254 1.65102,0.19051 -0.69851,0.3175 -1.27002,0.63501 -0.57151,0.254 -1.27002,0.57151 -0.63501,0.3175 -1.46052,0.76201 -0.76201,0.381 -1.46052,0.57151 -1.84153,0.57151 -4.82608,1.01601 -2.98455,0.38101 -6.79461,0.63501 -2.66704,3.11155 -5.20708,5.84209 -2.54004,2.66705 -4.95307,4.88958 1.90502,-0.1905 4.76257,-0.88901 2.92105,-0.76202 6.5406,-1.58753 3.61956,-0.88901 7.81062,-1.52402 4.25457,-0.69851 8.82664,-0.69851 h 1.14302 q -0.63501,0.63501 -1.20652,0.82551 -0.57151,0.127 -1.20652,0.44451 -1.07951,0.508 -2.22253,1.01601 -1.07952,0.50801 -2.15904,0.63501 -1.65102,0.38101 -4.44507,1.27002 -2.79404,0.88902 -5.77859,1.77803 -2.98454,0.82551 -5.84209,1.52402 -2.79404,0.69852 -4.50857,0.69852 -0.69851,0.127 -1.27002,-0.12701 -0.57151,-0.254 -1.71452,-0.57151 -0.44451,-0.127 -0.57151,-0.3175 -0.12701,-0.1905 -0.19051,-0.44451 0,-0.254 0,-0.50801 0,-0.254 -0.1905,-0.5715 -0.44451,-0.69852 -0.63501,-1.27002 -0.1905,-0.63501 0.38101,-1.20652 1.46052,-1.52403 3.49255,-3.93706 2.09553,-2.41304 4.25457,-5.08008 h -3.23855 q -0.69851,0.0635 -1.01602,-0.19051 -0.3175,-0.254 -0.82551,-0.381 -0.76201,-0.25401 -1.46052,-0.25401 -0.69852,-0.0635 -1.07952,-0.1905 -0.25401,-0.127 -0.44451,-0.0635 -0.127,0 -0.0635,-0.1905 0.127,-0.44451 0.38101,-0.44451 2.85754,-0.38101 5.39758,-0.76201 2.54004,-0.38101 4.95308,-0.76202 2.28603,-2.92104 4.12756,-5.39758 1.84153,-2.47654 2.60354,-3.74656 -1.84153,0 -3.93706,0.127 -2.03203,0.12701 -4.19106,0.19051 -2.15904,0.0635 -4.31807,0.0635 -2.15903,0 -4.12757,-0.31751 l -1.33352,-0.254 q 0.0635,-0.50801 0.69851,-0.88902 0.63501,-0.381 0.95252,-0.82551 0.3175,-0.4445 0.57151,-0.69851 0.254,-0.254 0.82551,-0.381 3.42905,-0.50801 7.23911,-0.38101 3.81006,0.0635 7.36612,0.76201 0.50801,0.127 0.76201,0.1905 0.25401,0 0.38101,0.0635 0.1905,0.0635 0.3175,0.254 0.127,0.127 0.38101,0.57151 0.1905,0.254 0.63501,0.63501 0.50801,0.3175 0.76201,0.69851 0.31751,0.381 0.254,0.82551 -0.0635,0.38101 -0.1905,0.76201 -0.1905,0.57151 -0.44451,1.20652 -0.1905,0.63501 -0.63501,1.20652 -0.88901,1.20652 -1.71452,2.34954 -0.82552,1.14302 -1.71453,2.28603 1.90503,-0.254 3.81006,-0.381 1.90503,-0.1905 3.81006,-0.25401 z"
                 style="font-style:normal;font-variant:normal;font-weight:normal;font-stretch:normal;font-size:48px;font-family:'Nanum Brush Script';-inkscape-font-specification:'Nanum Brush Script';text-align:end;text-anchor:end;stroke-width:1.32293737"
                 id="path3440" />
              <path
                 inkscape:connector-curvature="0"
                 d="m 555.5441,379.4663 q 0,1.58752 0.44451,3.55605 0.50801,1.90503 0.50801,4.19107 0,3.23855 0.127,6.4771 0.127,3.23855 0.95252,6.4771 0.82551,0.82551 0.95251,1.65103 0.127,0.76201 0.127,1.58752 0,0.50801 -0.4445,1.58752 -0.38101,1.07952 -0.63501,1.65103 -2.41304,-3.61956 -3.55606,-7.93762 -1.07952,-4.38157 -1.33352,-8.89014 -0.1905,-4.57207 0.3175,-9.08064 0.50801,-4.57208 1.33353,-8.63614 0.381,0.38101 0.508,1.01602 0.12701,0.57151 0.25401,1.27002 0.127,0.3175 0.1905,0.95251 0.127,0.63501 0.127,1.39702 0.0635,0.69851 0.0635,1.46053 0.0635,0.69851 0.0635,1.27002 z m 20.63783,-0.57151 q -0.127,0.381 -0.44451,0.69851 -0.254,0.254 -0.63501,0.4445 -0.38101,0.12701 -0.76201,0.19051 -0.31751,0.0635 -0.44451,0.0635 -0.82551,0 -1.65102,0.69851 -0.76202,0.63501 -1.58753,1.46052 l -7.81062,8.95364 q 1.52402,0.69851 3.81006,1.58753 2.28603,0.88901 4.76257,2.09553 2.47654,1.20652 4.82608,2.73054 2.34954,1.52403 4.00056,3.42906 1.20652,0.82551 1.52402,1.27002 0.38101,0.4445 0.38101,0.76201 0,0.3175 -0.0635,0.57151 -0.0635,0.254 0.3175,0.63501 0.12701,0.57151 -0.127,0.88901 -0.1905,0.31751 -0.127,0.50801 0.0635,0.254 -0.254,0.127 -0.25401,-0.127 -0.57151,-0.44451 -2.03203,-2.03203 -4.44507,-3.49255 -2.41304,-1.46052 -5.14358,-2.60354 -2.66704,-1.20652 -5.71509,-2.15904 -2.98455,-0.95251 -6.1596,-1.96853 -1.46052,-0.3175 -1.77803,-1.20651 -0.254,-0.57151 -0.0635,-1.14302 0.25401,-0.63501 0.44451,-1.07952 0.44451,-0.88901 0.57151,-1.77803 0.127,-0.88901 0.69851,-1.84153 1.58752,-1.58752 3.23855,-3.61955 1.71453,-2.09554 3.49256,-3.81006 1.84152,-1.71453 3.87356,-2.73055 2.09553,-1.01601 4.50857,-0.63501 1.01601,0.0635 1.33352,0.57151 0.381,0.50801 0,0.82552 z"
                 style="font-style:normal;font-variant:normal;font-weight:normal;font-stretch:normal;font-size:48px;font-family:'Nanum Brush Script';-inkscape-font-specification:'Nanum Brush Script';text-align:end;text-anchor:end;stroke-width:1.32293737"
                 id="path3442" />
              <path
                 inkscape:connector-curvature="0"
                 d="m 597.34661,378.51378 q 0.38101,0 1.07952,-0.0635 0.76201,-0.127 1.58752,-0.0635 0.82551,0.0635 1.52403,0.381 0.76201,0.25401 1.14301,1.07952 1.27002,1.27002 2.09554,3.61956 0.82551,2.28603 0.95251,4.88957 0.127,2.54004 -0.57151,5.01658 -0.69851,2.47654 -2.47654,4.00057 -0.69851,0.69851 -1.77802,1.84152 -1.07952,1.07952 -2.15904,2.15904 -0.88901,0.88901 -1.84153,1.58752 -0.95251,0.63501 -2.15903,0.82552 -0.63501,0.127 -1.01602,-0.19051 -0.381,-0.381 -1.07951,-0.82551 -0.50801,-0.3175 -1.20652,-0.50801 -0.69851,-0.254 -1.07952,-0.76201 -3.49255,-4.44507 -4.82607,-11.04917 -0.19051,-1.01602 -0.0635,-2.60354 0.12701,-1.58753 0.57151,-3.30205 0.50801,-1.71453 1.39703,-3.36556 0.95251,-1.71452 2.28603,-2.92104 1.27002,-1.20652 3.30205,-1.90503 0.63501,-0.38101 1.33352,-0.31751 0.76202,0.0635 1.52403,0.25401 0.63501,0.127 1.01601,0.63501 0.44451,0.508 0.44451,1.58752 z m 5.33408,7.55662 q -0.381,-1.20652 -1.33352,-2.28604 -0.88901,-1.14301 -2.03203,-1.96853 -1.07952,-0.88901 -2.34954,-1.46052 -1.20651,-0.57151 -2.28603,-0.76201 -0.57151,0 -1.46052,0.50801 -0.88902,0.4445 -1.77803,1.20651 -0.88902,0.76202 -1.65103,1.77803 -0.76201,0.95252 -1.07952,1.90503 -0.69851,2.15904 -0.3175,4.88958 0.44451,2.66704 1.71453,4.82607 1.27002,2.09554 3.30205,3.17505 2.03203,1.01602 4.63557,-0.127 1.20652,-0.381 2.22254,-1.77803 1.01601,-1.46052 1.65102,-3.23855 0.69851,-1.77802 0.88902,-3.61955 0.254,-1.84153 -0.12701,-3.04805 z"
                 style="font-style:normal;font-variant:normal;font-weight:normal;font-stretch:normal;font-size:48px;font-family:'Nanum Brush Script';-inkscape-font-specification:'Nanum Brush Script';text-align:end;text-anchor:end;stroke-width:1.32293737"
                 id="path3444" />
              <path
                 inkscape:connector-curvature="0"
                 d="m 628.53552,382.89535 q 0.69851,1.65103 0.69851,3.17505 0.0635,1.52402 -0.69851,3.30205 -0.76201,1.33352 -2.09553,2.41304 -1.33352,1.01601 -2.85755,1.77803 -1.46052,0.76201 -2.85754,1.27002 -1.39702,0.508 -2.22254,0.82551 0.25401,1.90503 0.50801,4.19106 0.254,2.22254 0.38101,4.57208 0.1905,2.28603 0.3175,4.57207 0.127,2.22253 0.1905,4.12756 0,0.38101 -0.1905,0.44451 -0.1905,0.0635 -0.44451,0.381 -0.1905,0.19051 -0.381,0.50801 -0.127,0.31751 -0.38101,0.44451 -0.1905,0.127 -0.381,0.254 -0.19051,0.12701 -0.38101,0.12701 -0.95251,-3.23855 -1.71453,-7.11212 -0.76201,-3.93706 -1.33352,-8.06462 -0.508,-4.19107 -0.82551,-8.31863 -0.3175,-4.19107 -0.44451,-7.81062 -0.88901,0.127 -1.77802,0.57151 -0.88902,0.381 -1.58753,0.76201 -0.127,0.127 -0.254,0.0635 -0.12701,-0.0635 -0.25401,0.0635 -0.1905,0.127 -0.381,0.254 -0.19051,0.0635 -0.38101,-0.0635 -0.38101,-0.1905 -0.76201,-0.57151 0.69851,-2.09553 2.22253,-3.30205 1.52403,-1.20652 3.36556,-1.71453 1.07951,-0.254 3.30205,-0.381 2.22253,-0.1905 4.57207,0.0635 2.41304,0.1905 4.44507,0.95251 2.03203,0.69852 2.60354,2.22254 z m -2.34954,2.28603 q -0.1905,-1.20651 -1.27002,-1.84152 -1.07951,-0.63501 -2.54004,-0.82552 -1.46052,-0.1905 -3.04804,0 -1.52403,0.12701 -2.73055,0.50801 0.19051,0.82551 0.38101,2.03203 0.1905,1.20652 0.381,2.47654 0.19051,1.27002 0.31751,2.54004 0.1905,1.27002 0.254,2.15904 1.20652,-0.31751 2.66705,-0.88902 1.46052,-0.63501 2.66704,-1.52402 1.27002,-0.88902 2.09553,-2.03203 0.82551,-1.20652 0.82551,-2.60355 z"
                 style="font-style:normal;font-variant:normal;font-weight:normal;font-stretch:normal;font-size:48px;font-family:'Nanum Brush Script';-inkscape-font-specification:'Nanum Brush Script';text-align:end;text-anchor:end;stroke-width:1.32293737"
                 id="path3446" />
              <path
                 inkscape:connector-curvature="0"
                 d="m 649.52954,383.08585 q 0,4.44507 0.0635,8.25513 0.12701,3.81006 0.76202,7.49312 0.0635,0.381 -0.19051,0.82551 -0.254,0.44451 -0.508,0.76201 -0.38101,0.44451 -0.69852,0.88902 -0.3175,0.381 -0.63501,0.50801 -0.63501,0.3175 -0.76201,0.127 -0.127,-0.19051 -0.1905,-0.50801 -0.254,-1.20652 -0.69851,-3.23855 -0.38101,-2.09553 -0.50801,-4.19107 -0.76201,1.27002 -1.71453,2.60354 -0.88901,1.27002 -1.96853,2.34954 -1.01601,1.07952 -2.09553,1.96853 -1.07952,0.82551 -2.09553,1.20652 -0.44451,0.1905 -0.63501,0.0635 -0.127,-0.127 -0.50801,-0.254 -0.57151,-0.25401 -1.14302,-0.44451 -0.50801,-0.254 -0.82551,-0.69851 -0.69851,-1.20652 -1.14302,-2.34954 -0.69851,-1.84153 -0.88901,-3.87356 -0.127,-2.03203 0,-4.06406 0.127,-2.03203 0.4445,-3.93706 0.31751,-1.90503 0.63501,-3.49256 0.0635,-0.3175 0.31751,-0.381 0.254,-0.12701 0.3175,-0.44451 0.12701,-0.50801 0.44451,-0.69851 0.38101,-0.1905 0.76201,-0.31751 0.50801,-0.127 0.76201,-0.1905 0.31751,-0.127 0.82552,-0.127 -0.57151,1.84153 -0.88902,4.19106 -0.3175,2.34954 -0.3175,4.82608 0.0635,2.41304 0.44451,4.69907 0.4445,2.28604 1.27002,4.00057 1.20651,-0.82552 2.34953,-2.03204 1.20652,-1.20652 2.22254,-2.47653 1.01601,-1.33353 1.77803,-2.54004 0.82551,-1.20652 1.20651,-2.03204 0.38101,-1.27002 0.44451,-2.85754 0.127,-1.65103 0.127,-2.92105 -0.0635,-0.57151 0.0635,-0.88901 0.19051,-0.31751 0.38101,-0.69851 0.127,-0.1905 0.127,-0.38101 0.0635,-0.1905 0.25401,-0.3175 0.127,-0.127 0.254,-0.31751 0.1905,-0.254 0.38101,-0.254 0.381,0 0.508,0.381 0.12701,0.38101 0.38101,0.57151 0.3175,0.31751 0.57151,0.50801 0.3175,0.127 0.3175,0.69851 z"
                 style="font-style:normal;font-variant:normal;font-weight:normal;font-stretch:normal;font-size:48px;font-family:'Nanum Brush Script';-inkscape-font-specification:'Nanum Brush Script';text-align:end;text-anchor:end;stroke-width:1.32293737"
                 id="path3448" />
              <path
                 inkscape:connector-curvature="0"
                 d="m 659.55278,369.94115 q 0.76201,3.42905 1.20652,6.8581 0.4445,3.42906 0.82551,6.85811 0.38101,3.42905 0.76201,6.85811 0.44451,3.42905 1.14302,6.85811 -0.127,0.82551 -0.1905,1.33352 -0.0635,0.508 -0.31751,0.63501 -0.3175,0.1905 -0.63501,0.4445 -0.254,0.19051 -0.57151,0.31751 -0.127,0.0635 -0.254,0.254 -0.127,0.127 -0.31751,0.19051 -0.127,0.0635 -0.254,0 -0.127,-0.0635 -0.3175,-0.38101 -1.20652,-3.61956 -2.22254,-7.30261 -0.95251,-3.68306 -1.58752,-7.42962 -0.57151,-3.74656 -0.76202,-7.55662 -0.127,-3.87356 0.25401,-7.93762 0,-0.95252 0.57151,-1.20652 0.254,-0.127 0.63501,0.1905 0.4445,0.31751 0.76201,0.44451 0.44451,0.1905 0.69851,0.254 0.254,0 0.57151,0.31751 z"
                 style="font-style:normal;font-variant:normal;font-weight:normal;font-stretch:normal;font-size:48px;font-family:'Nanum Brush Script';-inkscape-font-specification:'Nanum Brush Script';text-align:end;text-anchor:end;stroke-width:1.32293737"
                 id="path3450" />
            </g>
            <path
               d="m 662.52264,378.7494 c 0.31728,-0.4531 0.60056,-0.85769 0.84986,-1.21373 0.23962,-0.41101 0.539,-0.80432 0.89842,-1.17975 0.3594,-0.37533 0.63776,-0.8075 0.8353,-1.29628 0.16521,-0.51132 0.50835,-0.8981 1.02949,-1.16028 -0.0874,0.46938 -0.15224,0.90635 -0.19439,1.31093 -0.0746,0.38193 -0.15539,0.80762 -0.24294,1.27694 -0.0648,0.437 -0.1311,0.94519 -0.19929,1.52456 -0.0778,0.5244 -0.19272,0.99859 -0.34492,1.42258 -0.36593,1.14262 -0.96819,2.55383 -1.80681,4.23365 -0.87096,1.65722 -1.92158,3.50211 -3.1519,5.53471 -2.41292,3.61325 -1.54705,2.54285 -2.47195,3.84026 l -1.73372,2.476 c -0.21697,0.37866 -0.44682,0.6036 -0.68955,0.6748 -0.24276,0.0712 -0.48718,0.2136 -0.73319,0.42725 -0.40179,0.29717 -0.72677,0.62463 -0.97608,0.98064 -0.28165,0.33331 -0.52278,0.57452 -0.7236,0.72327 -0.15539,0.0841 -0.25046,0.18668 -0.28656,0.30579 -0.0454,0.0647 -0.10518,0.0471 -0.17966,-0.0536 -0.18114,-0.22338 -0.22651,-0.39978 -0.13594,-0.52926 0.82565,-1.59244 1.59464,-3.10399 2.30693,-4.53462 0.71235,-1.43061 1.40201,-2.82886 2.069,-4.19477 1.52281,-3.12602 1.43335,-2.99229 2.28749,-4.40352 0.55049,-1.06158 1.13323,-2.10058 1.74838,-3.11691 0.58278,-1.03896 1.19795,-2.05526 1.84547,-3.04892"
               id="path5151"
               inkscape:connector-curvature="0"
               sodipodi:nodetypes="ccccccccccccccccccccccccc"
               style="font-style:normal;font-variant:normal;font-weight:normal;font-stretch:normal;font-size:32px;line-height:125%;font-family:'Nanum Brush Script';-inkscape-font-specification:'Nanum Brush Script';letter-spacing:0px;word-spacing:0px;fill:#000000;fill-opacity:1;stroke:none;stroke-width:1.32293737" />
          </g>
          <g
             style="font-style:normal;font-variant:normal;font-weight:normal;font-stretch:normal;font-size:28.59936142px;line-height:73.00000191%;font-family:'Nanum Brush Script';-inkscape-font-specification:'Nanum Brush Script';text-align:center;letter-spacing:0px;word-spacing:0px;text-anchor:middle;fill:#000000;fill-opacity:1;stroke:none"
             id="text5155" />
          <flowRoot
             style="font-style:normal;font-variant:normal;font-weight:normal;font-stretch:normal;line-height:0.01%;font-family:'Nanum Brush Script';-inkscape-font-specification:'Nanum Brush Script';letter-spacing:0px;word-spacing:0px;fill:#000000;fill-opacity:1;stroke:none"
             id="flowRoot5161"
             xml:space="preserve"
             transform="matrix(1.1823506,0,0,1.1823506,110.50756,41.314795)"><flowRegion
               id="flowRegion5163"><rect
                 y="295.16"
                 x="143.5"
                 height="37"
                 width="164"
                 id="rect5165" /></flowRegion><flowPara
               id="flowPara5167"
               style="font-size:32px;line-height:1.25"> </flowPara></flowRoot>        </g>
      </g>
    </g>
  </g>
  <g
     inkscape:groupmode="layer"
     id="layer3"
     inkscape:label="Layer 2"
     style="display:none"
     transform="translate(-58.617308,-132.35765)">
    <path
       id="path159"
       d="m 34.795856,192.31975 c -0.439491,-0.50474 -1.817309,-2.03193 -2.041435,-2.55687 -2.04226,-4.7833 -1.19839,-11.83423 0.343279,-16.56856 0.975619,-2.99604 2.517031,-5.77727 3.775548,-8.66591 3.846957,-6.04322 7.465412,-12.5483 12.742085,-17.55369 7.368098,-6.98929 20.920908,-14.39323 29.387387,-17.53084 8.506587,-3.15249 16.235129,-1.55811 24.85444,-0.83268 3.70811,1.68533 7.70269,2.84628 11.12431,5.056 6.52561,4.21434 12.06153,10.90947 16.20174,17.36403 4.62591,7.21175 5.26031,10.50814 8.70597,17.98715 1.07322,2.32947 2.2898,4.59017 3.4347,6.88526 2.45942,3.63847 3.54309,6.59575 7.86537,8.2762 3.67156,1.42747 8.45244,0.66405 11.91121,-0.74741 7.86645,-3.21015 6.898,-2.31311 9.51565,-6.34163 3.05895,-2.93998 6.35544,-5.6513 9.17684,-8.81995 5.65842,-6.35483 10.49236,-13.8437 14.25039,-21.46264 2.98685,-6.05546 6.76983,-15.22638 6.91985,-22.24759 0.0708,-3.31473 -1.18596,-6.52406 -1.77894,-9.78609 -1.59999,-2.69137 -2.62095,-5.8257 -4.79996,-8.07411 -5.31494,-5.48426 -14.33165,-8.697281 -21.53849,-9.782332 -5.41844,-0.81579 -10.95167,-0.400989 -16.42751,-0.601485 0,0 6.83917,-4.935887 6.83917,-4.935887 v 0 c 5.67049,0.153146 11.39373,-0.327218 17.01147,0.459439 7.56779,1.059722 16.93038,4.245734 22.49393,10.015155 2.25196,2.33528 3.2515,5.6149 4.87725,8.42235 0.58655,3.39865 1.84653,6.74816 1.75963,10.19595 -0.17926,7.11288 -4.02488,16.46546 -7.03363,22.62185 -5.67732,11.61669 -13.28862,22.01337 -23.02048,30.55716 -5.78316,3.7322 -11.4584,7.6372 -17.34949,11.19662 -6.13701,3.70802 -14.15523,8.28352 -21.59658,4.89552 -4.29949,-1.95753 -5.41075,-5.12447 -7.77158,-8.90942 -1.08062,-2.35235 -2.23147,-4.6737 -3.24188,-7.05705 -3.28066,-7.73847 -3.57156,-10.54707 -8.23253,-17.98333 -4.06867,-6.49126 -9.30283,-12.85781 -15.87071,-17.01487 -3.36229,-2.12812 -7.283643,-3.20686 -10.925464,-4.81028 -14.989254,-1.11828 -9.413441,-1.65559 -24.466412,1.13472 -1.312862,0.24336 -2.740498,0.28948 -3.884408,0.97818 -3.445315,2.07426 -6.741785,4.45326 -9.686436,7.19219 -5.462616,5.081 -8.667668,10.99559 -12.600784,17.19027 -1.177525,2.7692 -2.627304,5.43783 -3.532576,8.30759 -1.425215,4.518 -2.195563,10.88814 0.03991,15.34019 0.386826,0.77039 1.373322,1.5718 2.023311,2.15342 0,0 -9.45414,6.05338 -9.45414,6.05338 z"
       inkscape:connector-curvature="0"
       style="stroke-width:0.26458332" />
  </g>
</svg>
